<svg xmlns="http://www.w3.org/2000/svg" viewBox="0 0 32 32" fill="none">
  <!-- Gold rounded background -->
  <rect width="32" height="32" rx="7" fill="#F2A900"/>
  <!-- Back speech bubble (right-offset, semi-transparent) -->
  <path d="M14 13.5 Q14 11.5 16 11.5 H28.5 Q30.5 11.5 30.5 13.5 V19.5 Q30.5 21.5 28.5 21.5 H23 L21.5 24 L20 21.5 H16 Q14 21.5 14 19.5 Z" fill="#141b23" opacity="0.28"/>
  <!-- Front speech bubble (dark) -->
  <path d="M1.5 8.5 Q1.5 6.5 3.5 6.5 H17 Q19 6.5 19 8.5 V15 Q19 17 17 17 H12 L10.5 19.5 L9 17 H3.5 Q1.5 17 1.5 15 Z" fill="#141b23"/>
  <!-- Text lines inside front bubble -->
  <line x1="5.5" y1="10.5" x2="15.5" y2="10.5" stroke="#F2A900" stroke-width="1.5" stroke-linecap="round" opacity="0.9"/>
  <line x1="5.5" y1="13" x2="13" y2="13" stroke="#F2A900" stroke-width="1.5" stroke-linecap="round" opacity="0.9"/>
</svg>
